<?xml version="1.0" encoding="utf-8"?>
<!-- Generator: Adobe Illustrator 19.0.0, SVG Export Plug-In . SVG Version: 6.00 Build 0)  -->
<svg version="1.1" id="Layer_1" xmlns="http://www.w3.org/2000/svg" xmlns:xlink="http://www.w3.org/1999/xlink" x="0px" y="0px"
	 viewBox="0 0 256 256" style="enable-background:new 0 0 256 256;" xml:space="preserve">
<style type="text/css">
	.st0{fill:#8C43FF;}
</style>
<g id="XMLID_5_">
	<g id="XMLID_12_">
		<path id="XMLID_19_" class="st0" d="M129.2,92.7c-3.4,3.2-5.9,6.1-7.4,8.3c-1.6,2.2-3.2,5.3-5,9.3c-1.3,2.9-2.2,6.2-2.9,9.3
			c-0.6,2.8-1.2,6.6-1.2,11.1c0,6.4,0.6,11.7,1.8,16c1.2,4.3,3.1,7.5,5.5,9.7c2.5,2.2,5.4,3.3,8.9,3.3c2.8,0,5.7-1,8.6-3
			c2.9-2,5.6-4.6,8-7.9c2.4-3.3,4.3-6.9,5.7-10.9s2.1-7.9,2.1-11.6c-0.1-6.7-2.5-13.6-7.1-20.9c-1.7-2.9-2.6-4.9-2.6-6
			c0-2,1.1-4,3.3-6c2.5-2.3,5.4-4.6,8.6-6.4c3.2-1.9,5.8-2.8,7.6-2.9c1.1,0,2.2,0.2,3.4,0.7s2.1,1.1,2.8,1.9c1.6,1.6,2.9,4.5,4,8.8
			s1.9,9,1.8,13.7c-0.2,10.8-2,22-6.7,32c-4,8.4-11.9,18-19.5,23.3c-7.1,4.9-18.3,8.8-27.1,8.6c-5.5-0.1-11.2-1-16.7-3.1
			c-5.5-2-9.9-4.8-13.3-8.2c-5.7-5.7-8.5-13.1-8.3-22.2c0.1-5.3,1.2-10.8,3.4-16.7c2.2-5.9,5.1-11.6,8.8-17.1
			c3.7-5.5,7.9-10.6,12.7-15.2c4.8-4.6,9.7-8.2,14.7-10.9c4.6-2.4,9.4-4.4,14.7-5.9c5.2-1.5,9.8-2.2,13.8-2.3c5.6,0,8.4,0.8,8.4,2.5
			c0,0.7-0.6,1.7-1.7,3.2c-2.1,2-4,3.5-5.6,4.3s-4.2,1.8-7.8,2.8c-3.9,1.2-6.8,2.3-8.5,3.2C134.2,88.6,131.8,90.3,129.2,92.7z"/>
	</g>
</g>
<g id="XMLID_4_">
	<path id="XMLID_18_" class="st0" d="M199.2,214.2c0,0-2.5,0-7.3,0s-11.8,0-20.7,0.2c-2.2,0-4.6,0.1-7,0.1c-2.5,0.1-5,0.1-7.7,0.2
		c-5.4,0.1-11.2,0.2-17.4,0.4c-12.4,0.3-26.5,0.7-41.8,0.9c-7.6,0.1-15.6,0.2-23.9,0.2c-4.1,0-8.3,0-12.6,0c-1.1,0-2.1,0-3.2,0h-0.9
		h-0.8c-0.2,0-0.6-0.1-1-0.1c-0.4-0.1-0.7-0.1-1-0.2c-2.5-0.6-4.9-2-6.6-4c-1.8-2-2.8-4.5-3.1-7.2c-0.1-1.4,0-2.4,0-3.6
		c0-1.1,0-2.2,0-3.4c0.1-4.5,0.2-9,0.2-13.7c0.2-9.2,0.3-18.6,0.5-28.2c0.4-19.1,0.6-38.9,0.6-59c0-5,0-10.1,0-15.1
		c0-5.1-0.1-10.1-0.1-15.2c0-2.5-0.1-5.1-0.1-7.6l-0.1-3.8v-1.9v-0.5v-0.5c0-0.3,0-0.6,0.1-1c0.3-2.9,1.7-5.5,3.8-7.4s5-3,7.8-3.1
		c10.2-0.2,20.4-0.3,30.6-0.5c10.2-0.1,20.3-0.2,30.3-0.3c20.1-0.1,39.8-0.3,59-0.4c4.8,0,9.5,0,14.2-0.1c2.3,0,4.7,0,7,0h0.9h0.4
		h0.6h0.4c0.1,0,0.3,0,0.5,0l1.2,0.2c1.4,0.3,2.8,0.8,4,1.5c2.5,1.4,4.5,3.7,5.6,6.3c0.5,1.3,0.9,2.7,1,4.1v1v0.8V55
		c0,4.5,0,8.9-0.1,13.3c-0.1,17.5-0.2,34.1-0.5,49.4c-0.4,15.3-0.7,29.3-1,41.8c-0.1,6.2-0.3,12-0.4,17.4c-0.1,2.7-0.1,5.3-0.2,7.7
		c0,2.5-0.1,4.8-0.1,7c-0.1,4.5-0.1,8.5-0.2,11.9c-0.1,1.8-0.6,3.4-1.3,4.7s-1.7,2.4-2.6,3.1c-1.9,1.5-3.8,2.1-5,2.3
		c-0.3,0-0.6,0.1-0.8,0.1s-0.4,0-0.6,0C199.4,214.2,199.2,214.2,199.2,214.2z M199.2,213.7c0,0,0.2,0,0.5,0c0.2,0,0.3,0,0.6,0
		c0.2,0,0.5-0.1,0.8-0.1c1.2-0.2,2.9-0.7,4.8-2.2c1.8-1.5,3.5-4,3.7-7.4c0-3.4-0.1-7.4-0.1-11.9c0-2.2-0.1-4.6-0.1-7
		c-0.1-2.5-0.1-5-0.2-7.7c-0.1-5.4-0.3-11.2-0.4-17.4c-0.3-12.4-0.6-26.5-1-41.8c-0.3-15.3-0.4-31.9-0.5-49.4c0-4.4,0-8.8-0.1-13.3
		v-1.7V53v-0.6c-0.1-0.8-0.3-1.7-0.6-2.5c-0.7-1.5-1.8-2.9-3.3-3.8c-0.7-0.4-1.6-0.7-2.4-0.9c-0.2,0-0.4-0.1-0.5-0.1s-0.2,0-0.4,0
		h-0.4h-0.2c0,0-0.3,0-0.1,0h-0.4H198c-2.3,0-4.7,0-7,0c-4.7,0-9.4,0-14.2-0.1c-19.1-0.1-38.9-0.3-59-0.4c-10-0.1-20.2-0.2-30.3-0.3
		c-10.2-0.2-20.4-0.3-30.6-0.5c-2.2,0-4.5,0.8-6.2,2.2s-2.9,3.6-3.2,5.8c-0.1,0.2-0.1,0.6-0.1,0.9v0.4v0.5v1.9L47.2,59
		c0,2.5-0.1,5.1-0.1,7.6c0,5.1-0.1,10.1-0.1,15.2s0,10.1,0,15.1c0,20.1,0.2,39.8,0.6,59c0.2,9.6,0.3,19,0.5,28.2
		c0.1,4.6,0.2,9.2,0.2,13.7c0,1.1,0,2.2,0,3.4c0,1.1,0,2.3,0.1,3.1c0.2,1.8,1,3.4,2.1,4.7c0.6,0.7,1.3,1.2,2,1.6
		c0.7,0.4,1.5,0.8,2.4,1c0.2,0.1,0.4,0.1,0.6,0.1c0.2,0,0.3,0.1,0.6,0.1h0.8h0.7c1.1,0,2.1,0,3.2,0c4.3,0,8.5,0,12.6,0
		c8.2,0,16.2,0.1,23.9,0.2c15.3,0.2,29.3,0.6,41.8,0.9c6.2,0.1,12,0.3,17.4,0.4c2.7,0.1,5.3,0.1,7.7,0.2c2.5,0,4.8,0.1,7,0.1
		c8.9,0.1,15.9,0.1,20.7,0.2C196.7,213.7,199.2,213.7,199.2,213.7z"/>
</g>
</svg>
